<svg width="25" height="24" viewBox="0 0 25 24" fill="none" xmlns="http://www.w3.org/2000/svg">
<g clip-path="url(#clip0_613_243)">
<path d="M16.5 21V19C16.5 17.9391 16.0786 16.9217 15.3284 16.1716C14.5783 15.4214 13.5609 15 12.5 15H5.5C4.43913 15 3.42172 15.4214 2.67157 16.1716C1.92143 16.9217 1.5 17.9391 1.5 19V21M20.5 8V14M23.5 11H17.5M13 7C13 9.20914 11.2091 11 9 11C6.79086 11 5 9.20914 5 7C5 4.79086 6.79086 3 9 3C11.2091 3 13 4.79086 13 7Z" stroke="#7B61FF" stroke-width="2" stroke-linecap="round" stroke-linejoin="round"/>
</g>
<defs>
<clipPath id="clip0_613_243">
<rect width="24" height="24" fill="white" transform="translate(0.5)"/>
</clipPath>
</defs>
</svg>
